<svg width="30" height="30" viewBox="0 0 30 30" fill="none" xmlns="http://www.w3.org/2000/svg">
<path d="M15 16.875C16.0355 16.875 16.875 16.0355 16.875 15C16.875 13.9645 16.0355 13.125 15 13.125C13.9645 13.125 13.125 13.9645 13.125 15C13.125 16.0355 13.9645 16.875 15 16.875Z" fill="black"/>
<path d="M19.1126 22.6499L17.5001 20.9749L17.4126 20.8874L15.8251 19.2999C15.5732 19.344 15.3183 19.3691 15.0626 19.3749C14.4828 19.3832 13.9072 19.2761 13.3691 19.06C12.8311 18.8438 12.3414 18.5229 11.9285 18.1158C11.5156 17.7087 11.1878 17.2236 10.964 16.6887C10.7402 16.1538 10.625 15.5797 10.6251 14.9999C10.6309 14.7442 10.656 14.4893 10.7001 14.2374L8.20009 11.7374L6.25009 9.8374C4.83924 11.1667 3.6306 12.6954 2.66259 14.3749C2.55288 14.5649 2.49512 14.7805 2.49512 14.9999C2.49512 15.2193 2.55288 15.4349 2.66259 15.6249C3.45009 16.9874 7.66259 23.7499 15.0251 23.7499H15.3376C16.722 23.7088 18.0885 23.4254 19.3751 22.9124L19.1126 22.6499Z" fill="black"/>
<path d="M10.7375 7.19996L14.2375 10.7C14.4894 10.6558 14.7443 10.6308 15 10.625C16.1603 10.625 17.2731 11.0859 18.0936 11.9064C18.9141 12.7268 19.375 13.8396 19.375 15C19.3692 15.2557 19.3441 15.5105 19.3 15.7625L22.65 19.1125L23.7 20.1625C25.1286 18.8366 26.3542 17.3077 27.3375 15.625C27.4472 15.4349 27.505 15.2194 27.505 15C27.505 14.7805 27.4472 14.565 27.3375 14.375C26.5375 12.9875 22.1375 6.02496 14.6625 6.24996C13.2781 6.29103 11.9115 6.57449 10.625 7.08746L10.7375 7.19996Z" fill="black"/>
<path d="M25.8877 24.1125L24.2627 22.5L21.7627 20L9.86273 8.08749L8.02523 6.24999L5.88773 4.11249C5.77118 3.99594 5.63282 3.90349 5.48054 3.84041C5.32827 3.77734 5.16506 3.74487 5.00023 3.74487C4.83541 3.74487 4.6722 3.77734 4.51992 3.84041C4.36764 3.90349 4.22928 3.99594 4.11273 4.11249C3.87735 4.34787 3.74512 4.66711 3.74512 4.99999C3.74512 5.33286 3.87735 5.65211 4.11273 5.88749L6.91273 8.74999L9.10023 10.875L18.2377 20L18.3252 20.0875L20.0002 21.7625L20.7377 22.5L24.1127 25.8875C24.2289 26.0046 24.3672 26.0976 24.5195 26.1611C24.6718 26.2246 24.8352 26.2572 25.0002 26.2572C25.1652 26.2572 25.3286 26.2246 25.481 26.1611C25.6333 26.0976 25.7715 26.0046 25.8877 25.8875C26.0049 25.7713 26.0979 25.633 26.1613 25.4807C26.2248 25.3284 26.2575 25.165 26.2575 25C26.2575 24.835 26.2248 24.6716 26.1613 24.5193C26.0979 24.3669 26.0049 24.2287 25.8877 24.1125Z" fill="black"/>
</svg>
