<svg width="29" height="29" viewBox="0 0 29 29" fill="none" xmlns="http://www.w3.org/2000/svg">
<g clip-path="url(#clip0_10_36)">
<path d="M28.8866 14.9466C29.0378 14.6683 29.0378 14.3316 28.8866 14.0533C26.1163 8.95255 20.7126 5.48975 14.5 5.48975C8.28744 5.48975 2.88372 8.95259 0.11337 14.0533C-0.03779 14.3316 -0.03779 14.6683 0.11337 14.9466C2.88377 20.0474 8.28734 23.5102 14.5 23.5102C20.7126 23.5102 26.1162 20.0474 28.8866 14.9466ZM14.5 21.4114C10.6829 21.4114 7.58855 18.317 7.58855 14.5C7.58855 10.6829 10.6829 7.5885 14.5 7.5885C18.3171 7.5885 21.4115 10.6829 21.4115 14.5C21.4115 18.3171 18.3171 21.4114 14.5 21.4114Z" fill="black"/>
<path d="M14.4998 10.9778C14.209 10.9778 13.9266 11.0133 13.6564 11.0797C13.9332 11.4 14.101 11.8171 14.101 12.2737C14.101 13.283 13.2828 14.1013 12.2734 14.1013C11.8169 14.1013 11.3997 13.9335 11.0794 13.6566C11.013 13.9269 10.9775 14.2092 10.9775 14.5C10.9775 16.4453 12.5545 18.0222 14.4997 18.0222C16.4449 18.0222 18.0219 16.4452 18.0219 14.5C18.0219 12.5548 16.445 10.9778 14.4998 10.9778Z" fill="black"/>
</g>
<defs>
<clipPath id="clip0_10_36">
<rect width="29" height="29" fill="white"/>
</clipPath>
</defs>
</svg>
