<svg width="359" height="54" viewBox="0 0 359 54" fill="none" xmlns="http://www.w3.org/2000/svg">
<rect x="0.5" y="0.5" width="358" height="53" fill="white" stroke="#C8C8C8"/>
<path d="M24.668 33.0781C24.3424 33.0781 23.9128 33.0716 23.3789 33.0586C22.8581 33.0586 22.2396 33.0521 21.5234 33.0391C20.8073 33.026 20.1562 33.013 19.5703 33C18.9844 33 18.4635 33 18.0078 33L15.6445 33.0586C15.6055 33.0195 15.5859 32.9154 15.5859 32.7461C15.5859 32.5768 15.6055 32.4922 15.6445 32.4922C15.7617 32.4922 15.918 32.4727 16.1133 32.4336C16.3086 32.3815 16.4909 32.3229 16.6602 32.2578C16.8424 32.1927 16.9531 32.1211 16.9922 32.043C17.0833 31.8997 17.1289 31.2878 17.1289 30.207V22.8242C17.1289 22.4466 17.1159 22.1146 17.0898 21.8281C17.0768 21.5417 17.0443 21.3138 16.9922 21.1445C16.9661 21.0664 16.862 20.9948 16.6797 20.9297C16.5104 20.8646 16.3216 20.8125 16.1133 20.7734C15.918 20.7344 15.7617 20.7148 15.6445 20.7148C15.5924 20.7148 15.5664 20.6367 15.5664 20.4805C15.5664 20.3112 15.5924 20.2005 15.6445 20.1484C15.9831 20.1615 16.3411 20.1745 16.7188 20.1875C17.1094 20.1875 17.526 20.1875 17.9688 20.1875C18.2682 20.1875 18.6719 20.181 19.1797 20.168C19.6875 20.1549 20.2995 20.1354 21.0156 20.1094C21.7448 20.0833 22.3763 20.0638 22.9102 20.0508C23.457 20.0378 23.9128 20.0312 24.2773 20.0312C24.3034 20.2135 24.3424 20.4349 24.3945 20.6953C24.4466 20.9427 24.5117 21.2161 24.5898 21.5156C24.6549 21.8281 24.707 22.082 24.7461 22.2773C24.7982 22.4727 24.8307 22.6094 24.8438 22.6875C24.7786 22.7526 24.6615 22.7852 24.4922 22.7852C24.3229 22.7852 24.2318 22.7396 24.2188 22.6484C24.0234 21.9323 23.75 21.4766 23.3984 21.2812C23.0469 21.0729 22.5651 20.9688 21.9531 20.9688H20.6445C19.5117 20.9688 18.9388 21.0534 18.9258 21.2227C18.8997 21.3789 18.8737 21.5938 18.8477 21.8672C18.8346 22.1406 18.8281 22.4727 18.8281 22.8633V25.9883C18.8281 26.0664 19.1081 26.1055 19.668 26.1055H20.7031C21.1458 26.1055 21.4453 26.1055 21.6016 26.1055C21.7578 26.0924 21.8685 26.0729 21.9336 26.0469C22.0117 26.0208 22.1549 25.9818 22.3633 25.9297C22.4935 25.9036 22.5911 25.7539 22.6562 25.4805C22.7344 25.194 22.7995 24.9596 22.8516 24.7773C22.8646 24.6862 22.9622 24.6406 23.1445 24.6406C23.3008 24.6406 23.4115 24.6732 23.4766 24.7383V28.4297C23.4245 28.4818 23.3203 28.5078 23.1641 28.5078C22.9948 28.5078 22.8906 28.4557 22.8516 28.3516C22.7995 28.1693 22.7539 28.013 22.7148 27.8828C22.6758 27.7526 22.6432 27.6419 22.6172 27.5508C22.5521 27.3685 22.5 27.2643 22.4609 27.2383C22.4349 27.2122 22.3828 27.1732 22.3047 27.1211C22.1224 27.0169 21.4323 26.9648 20.2344 26.9648C19.2969 26.9648 18.8281 27.0234 18.8281 27.1406V30.168C18.8281 31.0143 18.8867 31.6068 19.0039 31.9453C19.043 32.0755 19.4857 32.1406 20.332 32.1406H21.2695C22.4674 32.1406 23.2878 32.0299 23.7305 31.8086C23.9258 31.7044 24.1406 31.4766 24.375 31.125C24.6224 30.7604 24.8177 30.3307 24.9609 29.8359C24.987 29.7578 25.0781 29.7188 25.2344 29.7188C25.4818 29.7188 25.6445 29.7578 25.7227 29.8359C25.6836 29.9401 25.6185 30.1029 25.5273 30.3242C25.4492 30.5326 25.3711 30.7474 25.293 30.9688C25.2148 31.1901 25.1497 31.3789 25.0977 31.5352C25.0195 31.7695 24.9349 32.0365 24.8438 32.3359C24.7526 32.6354 24.694 32.8828 24.668 33.0781ZM26.7578 33.0586C26.7057 33.0065 26.6797 32.8958 26.6797 32.7266C26.6797 32.5703 26.7057 32.4922 26.7578 32.4922C26.862 32.4922 27.0052 32.4727 27.1875 32.4336C27.3698 32.3945 27.5391 32.3424 27.6953 32.2773C27.8516 32.2122 27.9362 32.1536 27.9492 32.1016C28.0013 31.9193 28.0339 31.7109 28.0469 31.4766C28.0729 31.2422 28.0859 30.9948 28.0859 30.7344V27.043C28.0859 26.5482 27.9948 26.1966 27.8125 25.9883C27.6823 25.832 27.526 25.7279 27.3438 25.6758C27.1745 25.6237 27.0182 25.5977 26.875 25.5977C26.7448 25.5846 26.6797 25.5651 26.6797 25.5391C26.6797 25.2266 26.7188 25.0638 26.7969 25.0508C27.487 24.9466 28.0273 24.8555 28.418 24.7773C28.8216 24.6992 29.1276 24.6341 29.3359 24.582L29.5898 24.5234C29.6419 24.5104 29.6745 24.5625 29.6875 24.6797C29.7005 24.7839 29.7005 24.8685 29.6875 24.9336C29.6615 25.1159 29.6419 25.2721 29.6289 25.4023C29.6159 25.5326 29.6094 25.6367 29.6094 25.7148C29.6094 25.7669 29.6224 25.793 29.6484 25.793C29.6615 25.793 29.681 25.7799 29.707 25.7539C30.0065 25.4414 30.4102 25.1484 30.918 24.875C31.4388 24.5885 31.9336 24.4453 32.4023 24.4453C32.9232 24.4453 33.3529 24.5885 33.6914 24.875C34.043 25.1484 34.2839 25.4674 34.4141 25.832C35.4036 24.9076 36.4128 24.4453 37.4414 24.4453C39.082 24.4453 39.9023 25.6953 39.9023 28.1953V30.3633C39.9023 30.7409 39.9154 31.0729 39.9414 31.3594C39.9674 31.6458 40.0065 31.8932 40.0586 32.1016C40.0846 32.1536 40.1758 32.2122 40.332 32.2773C40.4883 32.3424 40.6576 32.3945 40.8398 32.4336C41.0221 32.4727 41.1523 32.4922 41.2305 32.4922C41.2695 32.4922 41.2956 32.5703 41.3086 32.7266C41.3216 32.8828 41.3151 32.9935 41.2891 33.0586L39.1992 32.9609L37.0703 33.0586C37.0182 33.0065 36.9922 32.8958 36.9922 32.7266C36.9922 32.5703 37.0182 32.4922 37.0703 32.4922C37.1745 32.4922 37.3177 32.4727 37.5 32.4336C37.6823 32.3945 37.8516 32.3424 38.0078 32.2773C38.1641 32.2122 38.2487 32.1536 38.2617 32.1016C38.3138 31.9193 38.3464 31.724 38.3594 31.5156C38.3854 31.2943 38.3984 31.0729 38.3984 30.8516V28.6445C38.3984 26.6393 37.7409 25.6367 36.4258 25.6367C36.1133 25.6367 35.8203 25.7083 35.5469 25.8516C35.2734 25.9818 35.0521 26.1315 34.8828 26.3008C34.7266 26.4701 34.6484 26.6198 34.6484 26.75C34.6875 26.9974 34.7135 27.2513 34.7266 27.5117C34.7396 27.7591 34.7461 28.0326 34.7461 28.332V30.5391C34.7461 30.8646 34.7591 31.1576 34.7852 31.418C34.8112 31.6654 34.8503 31.8932 34.9023 32.1016C34.9284 32.1536 35.0195 32.2122 35.1758 32.2773C35.332 32.3424 35.5013 32.3945 35.6836 32.4336C35.8659 32.4727 35.9961 32.4922 36.0742 32.4922C36.1133 32.4922 36.1393 32.5703 36.1523 32.7266C36.1654 32.8828 36.1589 32.9935 36.1328 33.0586L34.043 32.9609L31.9141 33.0586C31.862 33.0065 31.8359 32.8958 31.8359 32.7266C31.8359 32.5703 31.862 32.4922 31.9141 32.4922C32.0182 32.4922 32.1615 32.4727 32.3438 32.4336C32.526 32.3945 32.6953 32.3424 32.8516 32.2773C33.0078 32.2122 33.0924 32.1536 33.1055 32.1016C33.1576 31.9193 33.1901 31.7109 33.2031 31.4766C33.2292 31.2422 33.2422 30.9948 33.2422 30.7344V28.7422C33.2422 26.6719 32.6172 25.6367 31.3672 25.6367C31.1068 25.6367 30.8398 25.7083 30.5664 25.8516C30.293 25.9818 30.0586 26.151 29.8633 26.3594C29.681 26.5547 29.5898 26.7435 29.5898 26.9258V30.3633C29.5898 30.7409 29.6029 31.0729 29.6289 31.3594C29.6549 31.6458 29.694 31.8932 29.7461 32.1016C29.7721 32.1536 29.8633 32.2122 30.0195 32.2773C30.1758 32.3424 30.3451 32.3945 30.5273 32.4336C30.7096 32.4727 30.8398 32.4922 30.918 32.4922C30.957 32.4922 30.9831 32.5703 30.9961 32.7266C31.0091 32.8828 31.0026 32.9935 30.9766 33.0586L28.8867 32.9609L26.7578 33.0586ZM44.6094 33.1367C44.0104 33.1367 43.5156 32.9805 43.125 32.668C42.7344 32.3424 42.5391 31.8607 42.5391 31.2227C42.5391 30.4414 43.0469 29.7904 44.0625 29.2695C44.5052 29.0482 44.9414 28.8724 45.3711 28.7422C45.8138 28.612 46.2565 28.4622 46.6992 28.293C46.8164 28.2539 46.875 28.1562 46.875 28V26.5352C46.875 26.1185 46.7448 25.7995 46.4844 25.5781C46.224 25.3438 45.9115 25.2266 45.5469 25.2266C45.1562 25.2266 44.8307 25.3633 44.5703 25.6367C44.3099 25.8971 44.1797 26.2422 44.1797 26.6719C44.1797 27.1276 43.9128 27.3555 43.3789 27.3555C43.0013 27.3555 42.7474 27.2318 42.6172 26.9844C42.6172 26.7109 42.7279 26.431 42.9492 26.1445C43.1836 25.8451 43.4831 25.5716 43.8477 25.3242C44.2122 25.0768 44.6094 24.875 45.0391 24.7188C45.4818 24.5625 45.918 24.4844 46.3477 24.4844C47.0638 24.4844 47.5781 24.6602 47.8906 25.0117C48.2031 25.3503 48.3594 25.9036 48.3594 26.6719V31.1836C48.3594 31.457 48.431 31.6849 48.5742 31.8672C48.7174 32.0495 48.9128 32.1406 49.1602 32.1406C49.3294 32.1406 49.5573 32.0495 49.8438 31.8672C49.8958 31.8672 49.9219 31.9193 49.9219 32.0234C49.9219 32.1927 49.8893 32.3294 49.8242 32.4336C49.2904 32.8893 48.8346 33.1172 48.457 33.1172C48.1576 33.1172 47.8711 32.9935 47.5977 32.7461C47.3242 32.4987 47.1354 32.2383 47.0312 31.9648C46.9661 32.0169 46.8815 32.0885 46.7773 32.1797C46.6862 32.2578 46.6081 32.3229 46.543 32.375C46.2695 32.5833 45.9701 32.7656 45.6445 32.9219C45.332 33.0651 44.987 33.1367 44.6094 33.1367ZM45.3516 32.0234C45.7161 32.0234 46.0612 31.9193 46.3867 31.7109C46.7122 31.5026 46.875 31.2812 46.875 31.0469V29.0352C46.5365 29.1654 46.2109 29.2826 45.8984 29.3867C45.599 29.4909 45.3581 29.5755 45.1758 29.6406C44.9414 29.7318 44.7135 29.8945 44.4922 30.1289C44.2839 30.3633 44.1797 30.6302 44.1797 30.9297C44.1797 31.3203 44.2969 31.6003 44.5312 31.7695C44.7786 31.9388 45.0521 32.0234 45.3516 32.0234ZM50.7422 33.0586C50.6901 33.0065 50.6641 32.8958 50.6641 32.7266C50.6641 32.5703 50.6901 32.4922 50.7422 32.4922C50.8464 32.4922 50.9896 32.4727 51.1719 32.4336C51.3542 32.3945 51.5234 32.3424 51.6797 32.2773C51.8359 32.2122 51.9206 32.1536 51.9336 32.1016C51.9857 31.9193 52.0182 31.7109 52.0312 31.4766C52.0573 31.2422 52.0703 30.9948 52.0703 30.7344V27.043C52.0703 26.5482 51.9792 26.1966 51.7969 25.9883C51.6667 25.819 51.5104 25.7148 51.3281 25.6758C51.1458 25.6237 50.9896 25.5977 50.8594 25.5977C50.7292 25.5846 50.6641 25.5651 50.6641 25.5391C50.6641 25.2266 50.7031 25.0638 50.7812 25.0508C51.4714 24.9466 51.9987 24.862 52.3633 24.7969C52.7279 24.7188 53.0534 24.6471 53.3398 24.582L53.5742 24.5234C53.6263 24.5104 53.6589 24.5625 53.6719 24.6797C53.6849 24.7969 53.6849 24.8815 53.6719 24.9336C53.6458 25.194 53.6198 25.4414 53.5938 25.6758C53.5807 25.9102 53.5742 26.1315 53.5742 26.3398V30.3633C53.5742 30.7409 53.5872 31.0729 53.6133 31.3594C53.6393 31.6458 53.6784 31.8932 53.7305 32.1016C53.7565 32.1536 53.8477 32.2122 54.0039 32.2773C54.1602 32.3424 54.3294 32.3945 54.5117 32.4336C54.694 32.4727 54.8242 32.4922 54.9023 32.4922C54.9414 32.4922 54.9674 32.5703 54.9805 32.7266C54.9935 32.8828 54.987 32.9935 54.9609 33.0586L52.8711 32.9609L50.7422 33.0586ZM52.6758 22.3945C52.4154 22.3945 52.1875 22.2969 51.9922 22.1016C51.7969 21.9062 51.6992 21.6784 51.6992 21.418C51.6992 21.1445 51.7969 20.9167 51.9922 20.7344C52.1875 20.5391 52.4154 20.4414 52.6758 20.4414C52.9492 20.4414 53.1771 20.5391 53.3594 20.7344C53.5547 20.9167 53.6523 21.1445 53.6523 21.418C53.6523 21.6784 53.5547 21.9062 53.3594 22.1016C53.1771 22.2969 52.9492 22.3945 52.6758 22.3945ZM55.918 33.0586C55.8659 33.0065 55.8398 32.8958 55.8398 32.7266C55.8398 32.5703 55.8659 32.4922 55.918 32.4922C56.0221 32.4922 56.1654 32.4727 56.3477 32.4336C56.5299 32.3945 56.6992 32.3424 56.8555 32.2773C57.0117 32.2122 57.0964 32.1536 57.1094 32.1016C57.1615 31.9193 57.194 31.7109 57.207 31.4766C57.2331 31.2422 57.2461 30.9948 57.2461 30.7344V22.2773C57.2461 21.8346 57.207 21.418 57.1289 21.0273C57.0768 20.819 56.7448 20.7148 56.1328 20.7148H55.957C55.8789 20.7148 55.8398 20.6432 55.8398 20.5C55.8398 20.2917 55.8789 20.1875 55.957 20.1875C56.7383 20.0964 57.3177 19.9922 57.6953 19.875C58.0729 19.7578 58.3333 19.6536 58.4766 19.5625L58.6719 19.4453H58.7109C58.763 19.4453 58.8151 19.4844 58.8672 19.5625C58.9193 19.6276 58.9518 19.6927 58.9648 19.7578C58.8216 20.1875 58.75 20.7539 58.75 21.457V30.3633C58.75 30.7409 58.763 31.0729 58.7891 31.3594C58.8151 31.6458 58.8542 31.8932 58.9062 32.1016C58.9323 32.1536 59.0234 32.2122 59.1797 32.2773C59.3359 32.3424 59.5052 32.3945 59.6875 32.4336C59.8698 32.4727 60 32.4922 60.0781 32.4922C60.1172 32.4922 60.1432 32.5703 60.1562 32.7266C60.1693 32.8828 60.1628 32.9935 60.1367 33.0586L58.0469 32.9609L55.918 33.0586Z" fill="#878787"/>
</svg>
